<mxfile host="app.diagrams.net" modified="2021-02-07T00:50:37.836Z" agent="5.0 (Windows NT 10.0; Win64; x64) AppleWebKit/537.36 (KHTML, like Gecko) Chrome/88.0.4324.146 Safari/537.36" etag="6k4U7zVE8TWBzJS2FzZy" version="14.2.9" type="github">
  <diagram id="FzSIQrA4KqryNm_t5dd9" name="Page-1">
    <mxGraphModel dx="868" dy="450" grid="0" gridSize="10" guides="1" tooltips="1" connect="1" arrows="1" fold="1" page="1" pageScale="1" pageWidth="850" pageHeight="1100" math="0" shadow="0">
      <root>
        <mxCell id="0" />
        <mxCell id="1" parent="0" />
        <UserObject label="user" tooltip="user" id="izetFacdLgfIDSLkVspy-1">
          <mxCell style="shape=umlActor;verticalLabelPosition=bottom;labelBackgroundColor=#ffffff;verticalAlign=top;html=1;" parent="1" vertex="1">
            <mxGeometry x="31" y="111" width="65" height="107" as="geometry" />
          </mxCell>
        </UserObject>
        <mxCell id="izetFacdLgfIDSLkVspy-8" value="" style="ellipse;whiteSpace=wrap;html=1;" parent="1" vertex="1">
          <mxGeometry x="215.25" y="3" width="107" height="45" as="geometry" />
        </mxCell>
        <mxCell id="izetFacdLgfIDSLkVspy-9" value="retrieve last code" style="text;html=1;strokeColor=none;fillColor=none;align=center;verticalAlign=middle;whiteSpace=wrap;rounded=0;" parent="1" vertex="1">
          <mxGeometry x="213.25" y="13.5" width="109" height="20" as="geometry" />
        </mxCell>
        <mxCell id="izetFacdLgfIDSLkVspy-11" value="" style="endArrow=none;html=1;entryX=0;entryY=1;entryDx=0;entryDy=0;" parent="1" target="izetFacdLgfIDSLkVspy-8" edge="1">
          <mxGeometry width="50" height="50" relative="1" as="geometry">
            <mxPoint x="107" y="99" as="sourcePoint" />
            <mxPoint x="217.25" y="11" as="targetPoint" />
          </mxGeometry>
        </mxCell>
        <mxCell id="izetFacdLgfIDSLkVspy-12" value="" style="ellipse;whiteSpace=wrap;html=1;" parent="1" vertex="1">
          <mxGeometry x="225.25" y="59" width="107" height="45" as="geometry" />
        </mxCell>
        <mxCell id="izetFacdLgfIDSLkVspy-13" value="charge meter" style="text;html=1;strokeColor=none;fillColor=none;align=center;verticalAlign=middle;whiteSpace=wrap;rounded=0;" parent="1" vertex="1">
          <mxGeometry x="223.25" y="69.5" width="109" height="20" as="geometry" />
        </mxCell>
        <mxCell id="izetFacdLgfIDSLkVspy-14" value="" style="endArrow=none;html=1;entryX=0;entryY=1;entryDx=0;entryDy=0;" parent="1" target="izetFacdLgfIDSLkVspy-12" edge="1">
          <mxGeometry width="50" height="50" relative="1" as="geometry">
            <mxPoint x="116" y="114" as="sourcePoint" />
            <mxPoint x="227.25" y="67" as="targetPoint" />
          </mxGeometry>
        </mxCell>
        <mxCell id="izetFacdLgfIDSLkVspy-15" value="" style="ellipse;whiteSpace=wrap;html=1;" parent="1" vertex="1">
          <mxGeometry x="229.25" y="110" width="107" height="45" as="geometry" />
        </mxCell>
        <mxCell id="izetFacdLgfIDSLkVspy-16" value="charge electricity" style="text;html=1;strokeColor=none;fillColor=none;align=center;verticalAlign=middle;whiteSpace=wrap;rounded=0;" parent="1" vertex="1">
          <mxGeometry x="227.25" y="120.5" width="109" height="20" as="geometry" />
        </mxCell>
        <mxCell id="izetFacdLgfIDSLkVspy-17" value="" style="endArrow=none;html=1;entryX=0;entryY=0.5;entryDx=0;entryDy=0;" parent="1" target="izetFacdLgfIDSLkVspy-16" edge="1">
          <mxGeometry width="50" height="50" relative="1" as="geometry">
            <mxPoint x="119" y="133" as="sourcePoint" />
            <mxPoint x="227" y="136" as="targetPoint" />
          </mxGeometry>
        </mxCell>
        <mxCell id="izetFacdLgfIDSLkVspy-18" value="" style="ellipse;whiteSpace=wrap;html=1;" parent="1" vertex="1">
          <mxGeometry x="233.25" y="162" width="107" height="45" as="geometry" />
        </mxCell>
        <mxCell id="izetFacdLgfIDSLkVspy-19" value="transfer electricity" style="text;html=1;strokeColor=none;fillColor=none;align=center;verticalAlign=middle;whiteSpace=wrap;rounded=0;" parent="1" vertex="1">
          <mxGeometry x="231.25" y="172.5" width="109" height="20" as="geometry" />
        </mxCell>
        <mxCell id="izetFacdLgfIDSLkVspy-20" value="" style="endArrow=none;html=1;entryX=0;entryY=0.5;entryDx=0;entryDy=0;" parent="1" target="izetFacdLgfIDSLkVspy-19" edge="1">
          <mxGeometry width="50" height="50" relative="1" as="geometry">
            <mxPoint x="121" y="148" as="sourcePoint" />
            <mxPoint x="235.25" y="170" as="targetPoint" />
          </mxGeometry>
        </mxCell>
        <mxCell id="izetFacdLgfIDSLkVspy-21" value="" style="ellipse;whiteSpace=wrap;html=1;" parent="1" vertex="1">
          <mxGeometry x="235.25" y="216" width="107" height="45" as="geometry" />
        </mxCell>
        <mxCell id="izetFacdLgfIDSLkVspy-22" value="change password" style="text;html=1;strokeColor=none;fillColor=none;align=center;verticalAlign=middle;whiteSpace=wrap;rounded=0;" parent="1" vertex="1">
          <mxGeometry x="233.25" y="226.5" width="109" height="20" as="geometry" />
        </mxCell>
        <mxCell id="izetFacdLgfIDSLkVspy-23" value="" style="endArrow=none;html=1;entryX=0;entryY=0;entryDx=0;entryDy=0;" parent="1" target="izetFacdLgfIDSLkVspy-21" edge="1">
          <mxGeometry width="50" height="50" relative="1" as="geometry">
            <mxPoint x="118" y="178" as="sourcePoint" />
            <mxPoint x="237.25" y="224" as="targetPoint" />
          </mxGeometry>
        </mxCell>
        <mxCell id="izetFacdLgfIDSLkVspy-24" value="" style="ellipse;whiteSpace=wrap;html=1;" parent="1" vertex="1">
          <mxGeometry x="237.25" y="268" width="107" height="45" as="geometry" />
        </mxCell>
        <mxCell id="izetFacdLgfIDSLkVspy-25" value="logout" style="text;html=1;strokeColor=none;fillColor=none;align=center;verticalAlign=middle;whiteSpace=wrap;rounded=0;" parent="1" vertex="1">
          <mxGeometry x="235.25" y="278.5" width="109" height="20" as="geometry" />
        </mxCell>
        <mxCell id="izetFacdLgfIDSLkVspy-26" value="" style="endArrow=none;html=1;" parent="1" edge="1">
          <mxGeometry width="50" height="50" relative="1" as="geometry">
            <mxPoint x="121" y="198" as="sourcePoint" />
            <mxPoint x="256" y="273" as="targetPoint" />
          </mxGeometry>
        </mxCell>
        <mxCell id="izetFacdLgfIDSLkVspy-27" value="" style="ellipse;whiteSpace=wrap;html=1;" parent="1" vertex="1">
          <mxGeometry x="241.25" y="329" width="107" height="45" as="geometry" />
        </mxCell>
        <mxCell id="izetFacdLgfIDSLkVspy-28" value="charging history" style="text;html=1;strokeColor=none;fillColor=none;align=center;verticalAlign=middle;whiteSpace=wrap;rounded=0;" parent="1" vertex="1">
          <mxGeometry x="239.25" y="339.5" width="109" height="20" as="geometry" />
        </mxCell>
        <mxCell id="izetFacdLgfIDSLkVspy-29" value="" style="endArrow=none;html=1;entryX=0;entryY=0;entryDx=0;entryDy=0;" parent="1" target="izetFacdLgfIDSLkVspy-27" edge="1">
          <mxGeometry width="50" height="50" relative="1" as="geometry">
            <mxPoint x="118" y="213" as="sourcePoint" />
            <mxPoint x="243.25" y="337" as="targetPoint" />
          </mxGeometry>
        </mxCell>
        <mxCell id="izetFacdLgfIDSLkVspy-30" value="" style="ellipse;whiteSpace=wrap;html=1;" parent="1" vertex="1">
          <mxGeometry x="245.25" y="380" width="107" height="45" as="geometry" />
        </mxCell>
        <mxCell id="izetFacdLgfIDSLkVspy-31" value="transfering history" style="text;html=1;strokeColor=none;fillColor=none;align=center;verticalAlign=middle;whiteSpace=wrap;rounded=0;" parent="1" vertex="1">
          <mxGeometry x="243.25" y="390.5" width="109" height="20" as="geometry" />
        </mxCell>
        <mxCell id="izetFacdLgfIDSLkVspy-32" value="" style="endArrow=none;html=1;entryX=0;entryY=0;entryDx=0;entryDy=0;" parent="1" target="izetFacdLgfIDSLkVspy-30" edge="1">
          <mxGeometry width="50" height="50" relative="1" as="geometry">
            <mxPoint x="105" y="227" as="sourcePoint" />
            <mxPoint x="247.25" y="388" as="targetPoint" />
          </mxGeometry>
        </mxCell>
        <mxCell id="izetFacdLgfIDSLkVspy-33" value="" style="ellipse;whiteSpace=wrap;html=1;" parent="1" vertex="1">
          <mxGeometry x="194.25" y="422.5" width="107" height="45" as="geometry" />
        </mxCell>
        <mxCell id="izetFacdLgfIDSLkVspy-34" value="monthly charge" style="text;html=1;strokeColor=none;fillColor=none;align=center;verticalAlign=middle;whiteSpace=wrap;rounded=0;" parent="1" vertex="1">
          <mxGeometry x="192.25" y="433" width="109" height="20" as="geometry" />
        </mxCell>
        <mxCell id="izetFacdLgfIDSLkVspy-35" value="" style="endArrow=none;html=1;entryX=0;entryY=0;entryDx=0;entryDy=0;" parent="1" target="izetFacdLgfIDSLkVspy-33" edge="1">
          <mxGeometry width="50" height="50" relative="1" as="geometry">
            <mxPoint x="104" y="243" as="sourcePoint" />
            <mxPoint x="196.25" y="430.5" as="targetPoint" />
          </mxGeometry>
        </mxCell>
        <mxCell id="izetFacdLgfIDSLkVspy-36" value="" style="ellipse;whiteSpace=wrap;html=1;" parent="1" vertex="1">
          <mxGeometry x="138.25" y="467.5" width="107" height="45" as="geometry" />
        </mxCell>
        <mxCell id="izetFacdLgfIDSLkVspy-37" value="login" style="text;html=1;strokeColor=none;fillColor=none;align=center;verticalAlign=middle;whiteSpace=wrap;rounded=0;" parent="1" vertex="1">
          <mxGeometry x="136.25" y="478" width="109" height="20" as="geometry" />
        </mxCell>
        <mxCell id="izetFacdLgfIDSLkVspy-38" value="" style="endArrow=none;html=1;entryX=0;entryY=0;entryDx=0;entryDy=0;" parent="1" target="izetFacdLgfIDSLkVspy-36" edge="1">
          <mxGeometry width="50" height="50" relative="1" as="geometry">
            <mxPoint x="95" y="277" as="sourcePoint" />
            <mxPoint x="253.25" y="501" as="targetPoint" />
          </mxGeometry>
        </mxCell>
        <mxCell id="izetFacdLgfIDSLkVspy-44" value="include" style="html=1;verticalAlign=bottom;endArrow=open;dashed=1;endSize=8;exitX=1;exitY=1;exitDx=0;exitDy=0;entryX=1;entryY=0.5;entryDx=0;entryDy=0;" parent="1" edge="1">
          <mxGeometry x="-0.1446" y="5" relative="1" as="geometry">
            <mxPoint x="283.82686312519377" y="460.8054903538541" as="sourcePoint" />
            <mxPoint x="243.25" y="490" as="targetPoint" />
            <Array as="points">
              <mxPoint x="265" y="493" />
            </Array>
            <mxPoint x="-1" as="offset" />
          </mxGeometry>
        </mxCell>
        <mxCell id="izetFacdLgfIDSLkVspy-45" value="include" style="html=1;verticalAlign=bottom;endArrow=open;dashed=1;endSize=8;exitX=1;exitY=1;exitDx=0;exitDy=0;entryX=0.783;entryY=0.967;entryDx=0;entryDy=0;entryPerimeter=0;" parent="1" source="izetFacdLgfIDSLkVspy-30" target="izetFacdLgfIDSLkVspy-36" edge="1">
          <mxGeometry x="-0.4371" y="3" relative="1" as="geometry">
            <mxPoint x="295.82686312519377" y="470.8054903538541" as="sourcePoint" />
            <mxPoint x="235.25" y="519" as="targetPoint" />
            <Array as="points">
              <mxPoint x="315" y="490" />
              <mxPoint x="283" y="511" />
              <mxPoint x="252" y="526" />
            </Array>
            <mxPoint as="offset" />
          </mxGeometry>
        </mxCell>
        <mxCell id="izetFacdLgfIDSLkVspy-46" value="include" style="html=1;verticalAlign=bottom;endArrow=open;dashed=1;endSize=8;exitX=1;exitY=0.75;exitDx=0;exitDy=0;entryX=0.371;entryY=1.056;entryDx=0;entryDy=0;entryPerimeter=0;" parent="1" source="izetFacdLgfIDSLkVspy-28" target="izetFacdLgfIDSLkVspy-36" edge="1">
          <mxGeometry x="-0.6023" y="7" relative="1" as="geometry">
            <mxPoint x="346.8268631251972" y="428.3054903538555" as="sourcePoint" />
            <mxPoint x="232.03099999999995" y="521.015" as="targetPoint" />
            <Array as="points">
              <mxPoint x="383" y="432" />
              <mxPoint x="360" y="490" />
              <mxPoint x="332" y="522" />
              <mxPoint x="293" y="536" />
              <mxPoint x="257" y="536" />
            </Array>
            <mxPoint as="offset" />
          </mxGeometry>
        </mxCell>
        <UserObject label="user" tooltip="user" id="izetFacdLgfIDSLkVspy-47">
          <mxCell style="shape=umlActor;verticalLabelPosition=bottom;labelBackgroundColor=#ffffff;verticalAlign=top;html=1;" parent="1" vertex="1">
            <mxGeometry x="126" y="756" width="65" height="107" as="geometry" />
          </mxCell>
        </UserObject>
        <mxCell id="izetFacdLgfIDSLkVspy-48" value="" style="ellipse;whiteSpace=wrap;html=1;" parent="1" vertex="1">
          <mxGeometry x="310.25" y="648" width="107" height="45" as="geometry" />
        </mxCell>
        <mxCell id="izetFacdLgfIDSLkVspy-49" value="login" style="text;html=1;strokeColor=none;fillColor=none;align=center;verticalAlign=middle;whiteSpace=wrap;rounded=0;" parent="1" vertex="1">
          <mxGeometry x="308.25" y="658.5" width="109" height="20" as="geometry" />
        </mxCell>
        <mxCell id="izetFacdLgfIDSLkVspy-50" value="" style="endArrow=none;html=1;entryX=0;entryY=1;entryDx=0;entryDy=0;" parent="1" target="izetFacdLgfIDSLkVspy-48" edge="1">
          <mxGeometry width="50" height="50" relative="1" as="geometry">
            <mxPoint x="202" y="744" as="sourcePoint" />
            <mxPoint x="312.25" y="656" as="targetPoint" />
          </mxGeometry>
        </mxCell>
        <mxCell id="izetFacdLgfIDSLkVspy-51" value="" style="ellipse;whiteSpace=wrap;html=1;" parent="1" vertex="1">
          <mxGeometry x="320.25" y="704" width="107" height="45" as="geometry" />
        </mxCell>
        <mxCell id="izetFacdLgfIDSLkVspy-52" value="text" style="text;html=1;strokeColor=none;fillColor=none;align=center;verticalAlign=middle;whiteSpace=wrap;rounded=0;" parent="1" vertex="1">
          <mxGeometry x="318.25" y="714.5" width="109" height="20" as="geometry" />
        </mxCell>
        <mxCell id="izetFacdLgfIDSLkVspy-53" value="" style="endArrow=none;html=1;entryX=0;entryY=1;entryDx=0;entryDy=0;" parent="1" target="izetFacdLgfIDSLkVspy-51" edge="1">
          <mxGeometry width="50" height="50" relative="1" as="geometry">
            <mxPoint x="211" y="759" as="sourcePoint" />
            <mxPoint x="322.25" y="712" as="targetPoint" />
          </mxGeometry>
        </mxCell>
        <mxCell id="izetFacdLgfIDSLkVspy-54" value="" style="ellipse;whiteSpace=wrap;html=1;" parent="1" vertex="1">
          <mxGeometry x="324.25" y="755" width="107" height="45" as="geometry" />
        </mxCell>
        <mxCell id="izetFacdLgfIDSLkVspy-55" value="text" style="text;html=1;strokeColor=none;fillColor=none;align=center;verticalAlign=middle;whiteSpace=wrap;rounded=0;" parent="1" vertex="1">
          <mxGeometry x="322.25" y="765.5" width="109" height="20" as="geometry" />
        </mxCell>
        <mxCell id="izetFacdLgfIDSLkVspy-56" value="" style="endArrow=none;html=1;entryX=0;entryY=0.5;entryDx=0;entryDy=0;" parent="1" target="izetFacdLgfIDSLkVspy-55" edge="1">
          <mxGeometry width="50" height="50" relative="1" as="geometry">
            <mxPoint x="214" y="778" as="sourcePoint" />
            <mxPoint x="322" y="781" as="targetPoint" />
          </mxGeometry>
        </mxCell>
        <mxCell id="izetFacdLgfIDSLkVspy-57" value="" style="ellipse;whiteSpace=wrap;html=1;" parent="1" vertex="1">
          <mxGeometry x="328.25" y="807" width="107" height="45" as="geometry" />
        </mxCell>
        <mxCell id="izetFacdLgfIDSLkVspy-58" value="text" style="text;html=1;strokeColor=none;fillColor=none;align=center;verticalAlign=middle;whiteSpace=wrap;rounded=0;" parent="1" vertex="1">
          <mxGeometry x="326.25" y="817.5" width="109" height="20" as="geometry" />
        </mxCell>
        <mxCell id="izetFacdLgfIDSLkVspy-59" value="" style="endArrow=none;html=1;entryX=0;entryY=0.5;entryDx=0;entryDy=0;" parent="1" target="izetFacdLgfIDSLkVspy-58" edge="1">
          <mxGeometry width="50" height="50" relative="1" as="geometry">
            <mxPoint x="216" y="793" as="sourcePoint" />
            <mxPoint x="330.25" y="815" as="targetPoint" />
          </mxGeometry>
        </mxCell>
        <mxCell id="izetFacdLgfIDSLkVspy-60" value="" style="ellipse;whiteSpace=wrap;html=1;" parent="1" vertex="1">
          <mxGeometry x="330.25" y="861" width="107" height="45" as="geometry" />
        </mxCell>
        <mxCell id="izetFacdLgfIDSLkVspy-61" value="text" style="text;html=1;strokeColor=none;fillColor=none;align=center;verticalAlign=middle;whiteSpace=wrap;rounded=0;" parent="1" vertex="1">
          <mxGeometry x="328.25" y="871.5" width="109" height="20" as="geometry" />
        </mxCell>
        <mxCell id="izetFacdLgfIDSLkVspy-62" value="" style="endArrow=none;html=1;entryX=0;entryY=0;entryDx=0;entryDy=0;" parent="1" target="izetFacdLgfIDSLkVspy-60" edge="1">
          <mxGeometry width="50" height="50" relative="1" as="geometry">
            <mxPoint x="213" y="823" as="sourcePoint" />
            <mxPoint x="332.25" y="869" as="targetPoint" />
          </mxGeometry>
        </mxCell>
        <mxCell id="izetFacdLgfIDSLkVspy-63" value="" style="ellipse;whiteSpace=wrap;html=1;" parent="1" vertex="1">
          <mxGeometry x="332.25" y="913" width="107" height="45" as="geometry" />
        </mxCell>
        <mxCell id="izetFacdLgfIDSLkVspy-64" value="text" style="text;html=1;strokeColor=none;fillColor=none;align=center;verticalAlign=middle;whiteSpace=wrap;rounded=0;" parent="1" vertex="1">
          <mxGeometry x="330.25" y="923.5" width="109" height="20" as="geometry" />
        </mxCell>
        <mxCell id="izetFacdLgfIDSLkVspy-65" value="" style="endArrow=none;html=1;" parent="1" edge="1">
          <mxGeometry width="50" height="50" relative="1" as="geometry">
            <mxPoint x="216" y="843" as="sourcePoint" />
            <mxPoint x="351" y="918" as="targetPoint" />
          </mxGeometry>
        </mxCell>
        <mxCell id="izetFacdLgfIDSLkVspy-66" value="" style="ellipse;whiteSpace=wrap;html=1;" parent="1" vertex="1">
          <mxGeometry x="336.25" y="974" width="107" height="45" as="geometry" />
        </mxCell>
        <mxCell id="izetFacdLgfIDSLkVspy-67" value="text" style="text;html=1;strokeColor=none;fillColor=none;align=center;verticalAlign=middle;whiteSpace=wrap;rounded=0;" parent="1" vertex="1">
          <mxGeometry x="334.25" y="984.5" width="109" height="20" as="geometry" />
        </mxCell>
        <mxCell id="izetFacdLgfIDSLkVspy-68" value="" style="endArrow=none;html=1;entryX=0;entryY=0;entryDx=0;entryDy=0;" parent="1" target="izetFacdLgfIDSLkVspy-66" edge="1">
          <mxGeometry width="50" height="50" relative="1" as="geometry">
            <mxPoint x="213" y="858" as="sourcePoint" />
            <mxPoint x="338.25" y="982" as="targetPoint" />
          </mxGeometry>
        </mxCell>
        <mxCell id="izetFacdLgfIDSLkVspy-69" value="" style="ellipse;whiteSpace=wrap;html=1;" parent="1" vertex="1">
          <mxGeometry x="340.25" y="1025" width="107" height="45" as="geometry" />
        </mxCell>
        <mxCell id="izetFacdLgfIDSLkVspy-70" value="text" style="text;html=1;strokeColor=none;fillColor=none;align=center;verticalAlign=middle;whiteSpace=wrap;rounded=0;" parent="1" vertex="1">
          <mxGeometry x="338.25" y="1035.5" width="109" height="20" as="geometry" />
        </mxCell>
        <mxCell id="izetFacdLgfIDSLkVspy-71" value="" style="endArrow=none;html=1;entryX=0;entryY=0;entryDx=0;entryDy=0;" parent="1" target="izetFacdLgfIDSLkVspy-69" edge="1">
          <mxGeometry width="50" height="50" relative="1" as="geometry">
            <mxPoint x="200" y="872" as="sourcePoint" />
            <mxPoint x="342.25" y="1033" as="targetPoint" />
          </mxGeometry>
        </mxCell>
        <mxCell id="izetFacdLgfIDSLkVspy-72" value="" style="ellipse;whiteSpace=wrap;html=1;" parent="1" vertex="1">
          <mxGeometry x="289.25" y="1067.5" width="107" height="45" as="geometry" />
        </mxCell>
        <mxCell id="izetFacdLgfIDSLkVspy-73" value="text" style="text;html=1;strokeColor=none;fillColor=none;align=center;verticalAlign=middle;whiteSpace=wrap;rounded=0;" parent="1" vertex="1">
          <mxGeometry x="287.25" y="1078" width="109" height="20" as="geometry" />
        </mxCell>
        <mxCell id="izetFacdLgfIDSLkVspy-74" value="" style="endArrow=none;html=1;entryX=0;entryY=0;entryDx=0;entryDy=0;" parent="1" target="izetFacdLgfIDSLkVspy-72" edge="1">
          <mxGeometry width="50" height="50" relative="1" as="geometry">
            <mxPoint x="199" y="888" as="sourcePoint" />
            <mxPoint x="291.25" y="1075.5" as="targetPoint" />
          </mxGeometry>
        </mxCell>
        <mxCell id="izetFacdLgfIDSLkVspy-75" value="" style="ellipse;whiteSpace=wrap;html=1;" parent="1" vertex="1">
          <mxGeometry x="233.25" y="1112.5" width="107" height="45" as="geometry" />
        </mxCell>
        <mxCell id="izetFacdLgfIDSLkVspy-76" value="text" style="text;html=1;strokeColor=none;fillColor=none;align=center;verticalAlign=middle;whiteSpace=wrap;rounded=0;" parent="1" vertex="1">
          <mxGeometry x="231.25" y="1123" width="109" height="20" as="geometry" />
        </mxCell>
        <mxCell id="izetFacdLgfIDSLkVspy-77" value="" style="endArrow=none;html=1;entryX=0;entryY=0;entryDx=0;entryDy=0;" parent="1" target="izetFacdLgfIDSLkVspy-75" edge="1">
          <mxGeometry width="50" height="50" relative="1" as="geometry">
            <mxPoint x="190" y="922" as="sourcePoint" />
            <mxPoint x="348.25" y="1146" as="targetPoint" />
          </mxGeometry>
        </mxCell>
        <mxCell id="izetFacdLgfIDSLkVspy-81" value="include" style="html=1;verticalAlign=bottom;endArrow=open;dashed=1;endSize=8;exitX=1;exitY=1;exitDx=0;exitDy=0;entryX=1;entryY=0.5;entryDx=0;entryDy=0;" parent="1" target="izetFacdLgfIDSLkVspy-55" edge="1">
          <mxGeometry x="-0.1446" y="5" relative="1" as="geometry">
            <mxPoint x="417.2468631251937" y="671.8054903538541" as="sourcePoint" />
            <mxPoint x="376.66999999999996" y="701" as="targetPoint" />
            <Array as="points">
              <mxPoint x="471" y="689" />
              <mxPoint x="479" y="724" />
              <mxPoint x="471" y="759" />
            </Array>
            <mxPoint x="-1" as="offset" />
          </mxGeometry>
        </mxCell>
        <mxCell id="izetFacdLgfIDSLkVspy-82" value="extend" style="html=1;verticalAlign=bottom;endArrow=open;dashed=1;endSize=8;entryX=1;entryY=1;entryDx=0;entryDy=0;" parent="1" target="izetFacdLgfIDSLkVspy-51" edge="1">
          <mxGeometry x="-0.4536" y="-6" relative="1" as="geometry">
            <mxPoint x="403" y="683" as="sourcePoint" />
            <mxPoint x="408" y="778.35" as="targetPoint" />
            <Array as="points">
              <mxPoint x="412" y="692" />
              <mxPoint x="439" y="708" />
              <mxPoint x="439" y="727" />
              <mxPoint x="448" y="742" />
            </Array>
            <mxPoint as="offset" />
          </mxGeometry>
        </mxCell>
        <mxCell id="izetFacdLgfIDSLkVspy-83" value="extend" style="html=1;verticalAlign=bottom;endArrow=open;dashed=1;endSize=8;exitX=1;exitY=0.25;exitDx=0;exitDy=0;entryX=1;entryY=0.5;entryDx=0;entryDy=0;" parent="1" source="izetFacdLgfIDSLkVspy-49" target="izetFacdLgfIDSLkVspy-58" edge="1">
          <mxGeometry x="0.57" relative="1" as="geometry">
            <mxPoint x="393.2468631251936" y="646.8454903538541" as="sourcePoint" />
            <mxPoint x="411.07686312519377" y="714.4954903538542" as="targetPoint" />
            <Array as="points">
              <mxPoint x="442" y="662" />
              <mxPoint x="520" y="701" />
              <mxPoint x="532" y="729" />
              <mxPoint x="490" y="788" />
            </Array>
            <mxPoint as="offset" />
          </mxGeometry>
        </mxCell>
        <mxCell id="izetFacdLgfIDSLkVspy-84" value="extend" style="html=1;verticalAlign=bottom;endArrow=open;dashed=1;endSize=8;entryX=1;entryY=0.5;entryDx=0;entryDy=0;" parent="1" target="izetFacdLgfIDSLkVspy-61" edge="1">
          <mxGeometry x="0.57" relative="1" as="geometry">
            <mxPoint x="374" y="647" as="sourcePoint" />
            <mxPoint x="445.25" y="837.5" as="targetPoint" />
            <Array as="points">
              <mxPoint x="457" y="647" />
              <mxPoint x="548" y="696" />
              <mxPoint x="542" y="739" />
              <mxPoint x="520" y="815" />
            </Array>
            <mxPoint as="offset" />
          </mxGeometry>
        </mxCell>
        <mxCell id="izetFacdLgfIDSLkVspy-85" value="" style="ellipse;whiteSpace=wrap;html=1;" parent="1" vertex="1">
          <mxGeometry x="522" y="836.5" width="76" height="35" as="geometry" />
        </mxCell>
        <mxCell id="izetFacdLgfIDSLkVspy-86" value="text" style="text;html=1;strokeColor=none;fillColor=none;align=center;verticalAlign=middle;whiteSpace=wrap;rounded=0;" parent="1" vertex="1">
          <mxGeometry x="505" y="841" width="109" height="20" as="geometry" />
        </mxCell>
        <mxCell id="izetFacdLgfIDSLkVspy-88" value="" style="endArrow=none;html=1;exitX=0.924;exitY=0.025;exitDx=0;exitDy=0;exitPerimeter=0;entryX=0;entryY=1;entryDx=0;entryDy=0;" parent="1" source="izetFacdLgfIDSLkVspy-64" target="izetFacdLgfIDSLkVspy-85" edge="1">
          <mxGeometry width="50" height="50" relative="1" as="geometry">
            <mxPoint x="408" y="915.5" as="sourcePoint" />
            <mxPoint x="516.25" y="913" as="targetPoint" />
          </mxGeometry>
        </mxCell>
        <mxCell id="izetFacdLgfIDSLkVspy-89" value="" style="ellipse;whiteSpace=wrap;html=1;" parent="1" vertex="1">
          <mxGeometry x="526" y="874" width="76" height="35" as="geometry" />
        </mxCell>
        <mxCell id="izetFacdLgfIDSLkVspy-90" value="text" style="text;html=1;strokeColor=none;fillColor=none;align=center;verticalAlign=middle;whiteSpace=wrap;rounded=0;" parent="1" vertex="1">
          <mxGeometry x="509" y="878.5" width="109" height="20" as="geometry" />
        </mxCell>
        <mxCell id="izetFacdLgfIDSLkVspy-91" value="" style="endArrow=none;html=1;exitX=1;exitY=0.5;exitDx=0;exitDy=0;entryX=0;entryY=1;entryDx=0;entryDy=0;" parent="1" source="izetFacdLgfIDSLkVspy-64" target="izetFacdLgfIDSLkVspy-89" edge="1">
          <mxGeometry width="50" height="50" relative="1" as="geometry">
            <mxPoint x="440.9659999999999" y="934" as="sourcePoint" />
            <mxPoint x="526.25" y="923" as="targetPoint" />
          </mxGeometry>
        </mxCell>
        <mxCell id="izetFacdLgfIDSLkVspy-92" value="" style="ellipse;whiteSpace=wrap;html=1;" parent="1" vertex="1">
          <mxGeometry x="513" y="913" width="76" height="35" as="geometry" />
        </mxCell>
        <mxCell id="izetFacdLgfIDSLkVspy-93" value="text" style="text;html=1;strokeColor=none;fillColor=none;align=center;verticalAlign=middle;whiteSpace=wrap;rounded=0;" parent="1" vertex="1">
          <mxGeometry x="496" y="917.5" width="109" height="20" as="geometry" />
        </mxCell>
        <mxCell id="izetFacdLgfIDSLkVspy-94" value="" style="endArrow=none;html=1;exitX=1;exitY=1;exitDx=0;exitDy=0;entryX=0;entryY=1;entryDx=0;entryDy=0;" parent="1" source="izetFacdLgfIDSLkVspy-63" target="izetFacdLgfIDSLkVspy-92" edge="1">
          <mxGeometry width="50" height="50" relative="1" as="geometry">
            <mxPoint x="439.24599999999987" y="1010.5" as="sourcePoint" />
            <mxPoint x="524.53" y="999.5" as="targetPoint" />
          </mxGeometry>
        </mxCell>
        <mxCell id="izetFacdLgfIDSLkVspy-95" value="" style="ellipse;whiteSpace=wrap;html=1;" parent="1" vertex="1">
          <mxGeometry x="477" y="949.5" width="76" height="35" as="geometry" />
        </mxCell>
        <mxCell id="izetFacdLgfIDSLkVspy-96" value="" style="endArrow=none;html=1;exitX=0.924;exitY=0.025;exitDx=0;exitDy=0;exitPerimeter=0;entryX=0;entryY=1;entryDx=0;entryDy=0;" parent="1" target="izetFacdLgfIDSLkVspy-95" edge="1">
          <mxGeometry width="50" height="50" relative="1" as="geometry">
            <mxPoint x="438.3859999999999" y="993" as="sourcePoint" />
            <mxPoint x="523.67" y="982" as="targetPoint" />
          </mxGeometry>
        </mxCell>
        <mxCell id="izetFacdLgfIDSLkVspy-97" value="" style="ellipse;whiteSpace=wrap;html=1;" parent="1" vertex="1">
          <mxGeometry x="522" y="984" width="76" height="35" as="geometry" />
        </mxCell>
        <mxCell id="izetFacdLgfIDSLkVspy-98" value="" style="endArrow=none;html=1;entryX=0;entryY=1;entryDx=0;entryDy=0;" parent="1" source="izetFacdLgfIDSLkVspy-67" target="izetFacdLgfIDSLkVspy-97" edge="1">
          <mxGeometry width="50" height="50" relative="1" as="geometry">
            <mxPoint x="446.67" y="1002.5" as="sourcePoint" />
            <mxPoint x="533.67" y="992" as="targetPoint" />
          </mxGeometry>
        </mxCell>
        <mxCell id="izetFacdLgfIDSLkVspy-99" value="" style="ellipse;whiteSpace=wrap;html=1;" parent="1" vertex="1">
          <mxGeometry x="487.9999999999999" y="1020.5" width="76" height="35" as="geometry" />
        </mxCell>
        <mxCell id="izetFacdLgfIDSLkVspy-100" value="" style="endArrow=none;html=1;exitX=1;exitY=1;exitDx=0;exitDy=0;entryX=0;entryY=1;entryDx=0;entryDy=0;" parent="1" source="izetFacdLgfIDSLkVspy-66" target="izetFacdLgfIDSLkVspy-99" edge="1">
          <mxGeometry width="50" height="50" relative="1" as="geometry">
            <mxPoint x="431.24686312519697" y="1020.3054903538552" as="sourcePoint" />
            <mxPoint x="531.9499999999999" y="1068.5" as="targetPoint" />
          </mxGeometry>
        </mxCell>
        <mxCell id="izetFacdLgfIDSLkVspy-102" value="text" style="text;html=1;strokeColor=none;fillColor=none;align=center;verticalAlign=middle;whiteSpace=wrap;rounded=0;" parent="1" vertex="1">
          <mxGeometry x="460.5" y="958" width="109" height="20" as="geometry" />
        </mxCell>
        <mxCell id="izetFacdLgfIDSLkVspy-103" value="text" style="text;html=1;strokeColor=none;fillColor=none;align=center;verticalAlign=middle;whiteSpace=wrap;rounded=0;" parent="1" vertex="1">
          <mxGeometry x="502" y="990" width="109" height="20" as="geometry" />
        </mxCell>
        <mxCell id="izetFacdLgfIDSLkVspy-104" value="text" style="text;html=1;strokeColor=none;fillColor=none;align=center;verticalAlign=middle;whiteSpace=wrap;rounded=0;" parent="1" vertex="1">
          <mxGeometry x="471.5" y="1028" width="109" height="20" as="geometry" />
        </mxCell>
        <mxCell id="GiW-k1ujWD0NseDSk7Vp-1" value="include" style="html=1;verticalAlign=bottom;endArrow=open;dashed=1;endSize=8;exitX=1;exitY=0.75;exitDx=0;exitDy=0;entryX=0;entryY=1;entryDx=0;entryDy=0;" edge="1" parent="1" target="izetFacdLgfIDSLkVspy-36">
          <mxGeometry x="-0.6023" y="7" relative="1" as="geometry">
            <mxPoint x="341.3" y="294" as="sourcePoint" />
            <mxPoint x="170.99700000000013" y="454.52" as="targetPoint" />
            <Array as="points">
              <mxPoint x="376.05" y="371.5" />
              <mxPoint x="413" y="468" />
              <mxPoint x="355" y="547" />
              <mxPoint x="250" y="556" />
              <mxPoint x="184" y="547" />
            </Array>
            <mxPoint as="offset" />
          </mxGeometry>
        </mxCell>
        <mxCell id="GiW-k1ujWD0NseDSk7Vp-2" value="include" style="html=1;verticalAlign=bottom;endArrow=open;dashed=1;endSize=8;exitX=1;exitY=0.75;exitDx=0;exitDy=0;entryX=0;entryY=1;entryDx=0;entryDy=0;" edge="1" parent="1" target="izetFacdLgfIDSLkVspy-37">
          <mxGeometry x="-0.6023" y="7" relative="1" as="geometry">
            <mxPoint x="340.71" y="241" as="sourcePoint" />
            <mxPoint x="153.0831368748126" y="452.8054903538514" as="targetPoint" />
            <Array as="points">
              <mxPoint x="375" y="319" />
              <mxPoint x="452" y="437" />
              <mxPoint x="375" y="566" />
              <mxPoint x="218" y="574" />
              <mxPoint x="142" y="534" />
            </Array>
            <mxPoint as="offset" />
          </mxGeometry>
        </mxCell>
      </root>
    </mxGraphModel>
  </diagram>
</mxfile>
